<?xml version="1.0" standalone="no"?>
<!DOCTYPE svg PUBLIC "-//W3C//DTD SVG 20010904//EN"
 "http://www.w3.org/TR/2001/REC-SVG-20010904/DTD/svg10.dtd">
<svg version="1.0" xmlns="http://www.w3.org/2000/svg"
 width="512.000000pt" height="512.000000pt" viewBox="0 0 512.000000 512.000000"
 preserveAspectRatio="xMidYMid meet">
<metadata>
Created by potrace 1.14, written by Peter Selinger 2001-2017
</metadata>
<g transform="translate(0.000000,512.000000) scale(0.100000,-0.100000)"
fill="#000000" stroke="none">
<path d="M2950 4537 c1 -272 7 -319 47 -412 27 -63 91 -150 140 -192 70 -58
487 -361 493 -358 7 4 3 443 -4 522 -13 139 -86 267 -211 369 -49 39 -382 283
-438 319 l-28 18 1 -266z"/>
<path d="M4350 4160 c-173 -127 -339 -256 -369 -287 -89 -93 -152 -204 -192
-338 -8 -26 -13 -166 -16 -407 -5 -373 -4 -387 30 -357 7 5 144 106 306 224
162 118 316 233 341 257 44 42 130 150 130 164 0 4 6 15 14 23 8 9 28 57 46
106 29 81 32 104 36 225 7 258 5 615 -3 617 -4 2 -150 -101 -323 -227z"/>
<path d="M2422 3624 c4 -469 5 -492 26 -567 30 -104 76 -207 131 -292 84 -129
181 -213 586 -507 209 -152 399 -291 423 -308 l42 -32 1 54 c3 154 -1 862 -5
877 -3 9 -8 36 -11 59 -19 132 -118 350 -199 439 -83 89 -150 150 -243 219
-153 114 -692 506 -726 529 l-28 18 3 -489z"/>
<path d="M622 2163 l3 -1608 590 0 c325 0 597 1 605 3 13 3 15 80 15 625 0
342 2 634 4 649 3 27 3 26 100 -43 53 -39 105 -77 116 -85 123 -89 1075 -782
1150 -837 177 -130 423 -307 427 -307 1 0 3 230 3 511 l0 511 -105 76 c-218
158 -305 222 -315 229 -10 8 -109 81 -291 213 -500 363 -1581 1151 -1589 1157
-11 10 -241 178 -285 208 -26 18 -211 152 -320 232 -25 19 -56 42 -70 53 -14
11 -29 20 -33 20 -4 0 -6 -723 -5 -1607z"/>
</g>
</svg>
